<?xml version="1.0" encoding="UTF-8" standalone="no"?>
<svg class="img-notification" id="img_notification"
   xmlns:dc="http://purl.org/dc/elements/1.1/"
   xmlns:cc="http://creativecommons.org/ns#"
   xmlns:rdf="http://www.w3.org/1999/02/22-rdf-syntax-ns#"
   xmlns:svg="http://www.w3.org/2000/svg"
   xmlns="http://www.w3.org/2000/svg"
   xmlns:sodipodi="http://sodipodi.sourceforge.net/DTD/sodipodi-0.dtd"
   xmlns:inkscape="http://www.inkscape.org/namespaces/inkscape"
   id="Capa_1"
   enable-background="new 0 0 512 512"
   height="512"
   viewBox="0 0 512 512"
   width="512"
   version="1.1"
   sodipodi:docname="comments-have.svg"
   inkscape:version="1.0.2-2 (e86c870879, 2021-01-15)">
  <metadata
     id="metadata35">
    <rdf:RDF>
      <cc:Work
         rdf:about="">
        <dc:format>image/svg+xml</dc:format>
        <dc:type
           rdf:resource="http://purl.org/dc/dcmitype/StillImage" />
        <dc:title></dc:title>
      </cc:Work>
    </rdf:RDF>
  </metadata>
  <defs
     id="defs33" />
  <sodipodi:namedview
     pagecolor="#ffffff"
     bordercolor="#666666"
     borderopacity="1"
     objecttolerance="10"
     gridtolerance="10"
     guidetolerance="10"
     inkscape:pageopacity="0"
     inkscape:pageshadow="2"
     inkscape:window-width="1920"
     inkscape:window-height="1027"
     id="namedview31"
     showgrid="false"
     inkscape:zoom="0.59385921"
     inkscape:cx="273.04216"
     inkscape:cy="371.34957"
     inkscape:window-x="1912"
     inkscape:window-y="760"
     inkscape:window-maximized="1"
     inkscape:current-layer="Capa_1" />
  <path
     d="m444.394 3.996h-285.072c-37.183 0-67.606 30.423-67.606 67.606v23.004h257.871c37.183 0 67.606 30.423 67.606 67.606v168.547h27.201c37.183 0 67.606-30.423 67.606-67.606v-191.551c0-37.184-30.423-67.606-67.606-67.606z"
     fill="#6c7ed6"
     id="path2" />
  <path
     d="m396.461 91.515h-285.072c-6.836 0-13.441 1.036-19.673 2.946v.145h257.871c37.183 0 67.606 30.423 67.606 67.606v168.547h27.2c6.836 0 13.441-1.036 19.673-2.946v-168.692c.001-37.183-30.422-67.606-67.605-67.606z"
     fill="#4f67d2"
     id="path4" />
  <path
     d="m352.678 91.515h-285.072c-37.183 0-67.606 30.423-67.606 67.606v191.55c0 37.183 30.423 67.606 67.606 67.606h171.096c7.335 0 12.811 6.826 11.133 13.966-4.537 19.317-11.48 39.745-21.744 60.686-4.609 9.405 5.876 18.966 14.782 13.454 25.751-15.937 62.389-42.61 93.244-80.317 4.056-4.957 10.156-7.79 16.561-7.79 37.183 0 67.606-30.423 67.606-67.606v-191.55c0-37.182-30.423-67.605-67.606-67.605z"
     fill="#60b8fe"
     id="path6" />
  <path
     d="m293.618 432.243c1.677-7.141-3.798-13.966-11.133-13.966h-43.783c7.335 0 12.81 6.825 11.133 13.966-4.537 19.317-11.48 39.745-21.744 60.686-4.609 9.405 5.876 18.966 14.782 13.454 9.88-6.115 21.365-13.816 33.509-23.108 7.832-17.563 13.399-34.696 17.236-51.032z"
     fill="#23a8fe"
     id="path8" />
  <path
     d="m43.783 350.671v-191.55c0-37.183 30.423-67.606 67.606-67.606h-43.783c-37.183 0-67.606 30.423-67.606 67.606v191.55c0 37.183 30.423 67.606 67.606 67.606h43.783c-37.184 0-67.606-30.422-67.606-67.606z"
     fill="#23a8fe"
     id="path10" />
  <g
     fill="#dfebfa"
     id="g20">
    <circle
       cx="93.714"
       cy="260.397"
       r="22.434"
       id="circle12" />
    <circle
       cx="166.174"
       cy="260.397"
       r="22.434"
       id="circle14" />
    <circle
       cx="238.633"
       cy="260.397"
       r="22.434"
       id="circle16" />
    <circle
       cx="311.093"
       cy="260.397"
       r="22.434"
       id="circle18" />
  </g>
  <path
     d="m93.714 260.397c0-8.302 4.514-15.546 11.217-19.425-3.301-1.91-7.129-3.009-11.217-3.009-12.39 0-22.434 10.044-22.434 22.434s10.044 22.434 22.434 22.434c4.088 0 7.917-1.099 11.217-3.009-6.704-3.879-11.217-11.123-11.217-19.425z"
     fill="#b1dbfc"
     id="path22" />
  <path
     d="m166.174 260.397c0-8.302 4.514-15.546 11.217-19.425-3.301-1.91-7.129-3.009-11.217-3.009-12.39 0-22.434 10.044-22.434 22.434s10.044 22.434 22.434 22.434c4.088 0 7.916-1.099 11.217-3.009-6.704-3.879-11.217-11.123-11.217-19.425z"
     fill="#b1dbfc"
     id="path24" />
  <path
     d="m238.633 260.397c0-8.302 4.514-15.546 11.217-19.425-3.301-1.91-7.13-3.009-11.217-3.009-12.39 0-22.434 10.044-22.434 22.434s10.044 22.434 22.434 22.434c4.088 0 7.917-1.099 11.217-3.009-6.703-3.879-11.217-11.123-11.217-19.425z"
     fill="#b1dbfc"
     id="path26" />
  <path
     d="m311.093 260.397c0-8.302 4.513-15.546 11.217-19.425-3.301-1.91-7.13-3.009-11.217-3.009-12.39 0-22.434 10.044-22.434 22.434s10.044 22.434 22.434 22.434c4.088 0 7.917-1.099 11.217-3.009-6.704-3.879-11.217-11.123-11.217-19.425z"
     fill="#b1dbfc"
     id="path28" />
  <ellipse
     style="opacity:0.92;fill:#ff7e2b;fill-opacity:1;stroke:#db011a;stroke-width:0;stroke-opacity:0.475806"
     id="path860"
     cx="407.73758"
     cy="354.08331"
     rx="100.91163"
     ry="104.78139" />
</svg>